<svg xmlns="http://www.w3.org/2000/svg" viewBox="0 0 92.85 79.87"><defs><style>.cls-1{fill:#987b26;}</style></defs><title>Asset 1</title><g id="Layer_2" data-name="Layer 2"><g id="Layer_1-2" data-name="Layer 1"><path class="cls-1" d="M48.32,34.62c-.42,0-.84,0-1.27,0s-.89,0-1.32,0L46.85,45h.45Z"/><path class="cls-1" d="M48.4,33.75c-.45,0-.89,0-1.35,0s-.95,0-1.41.06L42,0l9.57,1.27Z"/><path class="cls-1" d="M44.81,34.72c-.42.06-.83.13-1.25.22s-.86.2-1.28.33l3.27,9.95.44-.09Z"/><path class="cls-1" d="M44.7,33.86a12.16,12.16,0,0,0-1.32.23c-.47.1-.93.21-1.38.35L31.39,2.19,41,1.43Z"/><path class="cls-1" d="M41.4,35.55c-.4.15-.79.3-1.18.48s-.8.38-1.18.59l5.28,9.05.41-.18Z"/><path class="cls-1" d="M41.12,34.73c-.42.15-.84.32-1.25.5s-.86.41-1.27.64L21.48,6.55,30.73,3.8Z"/><path class="cls-1" d="M38.24,37.09c-.36.22-.71.45-1.05.7s-.71.54-1,.83l7.06,7.75.36-.27Z"/><path class="cls-1" d="M37.79,36.34c-.38.23-.75.48-1.12.75s-.75.58-1.11.88L12.69,12.89l8.47-4.63Z"/><path class="cls-1" d="M35.46,39.24c-.3.29-.59.6-.87.91s-.58.68-.84,1l8.52,6.1.3-.34Z"/><path class="cls-1" d="M34.87,38.61c-.32.3-.63.63-.93,1s-.62.73-.9,1.1L5.43,20.92l7.31-6.29Z"/><path class="cls-1" d="M33.21,41.93c-.24.35-.46.71-.67,1.08s-.42.78-.61,1.17l9.61,4.19.23-.4Z"/><path class="cls-1" d="M32.49,41.43c-.25.37-.48.75-.71,1.14s-.45.84-.65,1.26L0,30.29l5.84-7.68Z"/><path class="cls-1" d="M51.77,35.25c-.4-.12-.81-.22-1.23-.31s-.87-.17-1.3-.23L48.15,45.14l.44.09Z"/><path class="cls-1" d="M52,34.42c-.43-.13-.86-.24-1.3-.34s-.94-.17-1.4-.23L52.83.08l9.09,3.24Z"/><path class="cls-1" d="M55,36.59c-.36-.2-.74-.39-1.13-.56s-.82-.35-1.23-.5l-3.24,10,.41.19Z"/><path class="cls-1" d="M55.44,35.83q-.59-.31-1.2-.6c-.44-.19-.88-.37-1.32-.52L63.41,2.42l8.21,5.07Z"/><path class="cls-1" d="M57.91,38.58c-.32-.27-.65-.54-1-.79s-.73-.51-1.1-.74l-5.26,9.07.37.27Z"/><path class="cls-1" d="M58.49,37.93c-.34-.29-.69-.57-1.06-.84s-.78-.55-1.18-.79l17-29.38,7,6.68Z"/><path class="cls-1" d="M60.32,41.13c-.25-.33-.52-.66-.8-1s-.61-.65-.92-.95l-7,7.77.3.34Z"/><path class="cls-1" d="M61,40.61c-.27-.35-.55-.7-.85-1s-.65-.69-1-1L82,13.38l5.41,8Z"/><path class="cls-1" d="M62.15,44.13c-.18-.38-.38-.75-.59-1.12s-.45-.77-.7-1.13L52.36,48l.22.39Z"/><path class="cls-1" d="M62.94,43.77c-.19-.4-.39-.8-.62-1.2s-.49-.81-.75-1.2L89.11,21.52l3.62,8.94Z"/><path class="cls-1" d="M62.15,44.13c-.18-.38-.38-.75-.59-1.12s-.45-.77-.7-1.13L52.36,48l.22.39Z"/><path class="cls-1" d="M92.73,71.74H0v-.43H92.73ZM0,60.71v-.43H92.73v.43Z"/><path class="cls-1" d="M9.63,52.8c0-.35,0-.37-.19-.37H9.05c-.65,0-.84.09-1.1.76a.15.15,0,0,1-.22-.06c.12-.44.22-1,.27-1.24,0,0,0,0,.08,0s.06,0,.07,0c0,.21.13.21.61.21h2.86c.35,0,.45,0,.53-.21a.16.16,0,0,1,.09,0s.08,0,.09,0a6.87,6.87,0,0,0-.11,1.31.14.14,0,0,1-.21,0c-.09-.64-.23-.8-1-.8h-.4c-.18,0-.19,0-.19.37v3.56c0,.88.07.9.4.94l.25,0c.05,0,0,.2,0,.23l-1,0L9,57.57a.18.18,0,0,1,0-.23l.3-.05c.33,0,.39,0,.39-.93Z"/><path class="cls-1" d="M15.85,54.91c-.36,0-.38,0-.38.24v1.21c0,.88.07.9.4.94l.21,0a.2.2,0,0,1,0,.24l-1,0c-.31,0-.62,0-.89,0a.21.21,0,0,1,0-.24l.1,0c.33-.06.39-.08.39-1V53.29c0-.87-.06-.9-.39-.95l-.16,0a.2.2,0,0,1,0-.24c.3,0,.63,0,.94,0s.63,0,.9,0c.06,0,.06.2,0,.24l-.11,0c-.33,0-.4.08-.4.95v1c0,.23,0,.25.38.25h1.64c.36,0,.38,0,.38-.25v-1c0-.87-.06-.9-.39-.95l-.16,0s0-.21,0-.24c.32,0,.64,0,.95,0s.62,0,.9,0c.06,0,.06.2,0,.24l-.12,0c-.33,0-.39.08-.39.95v3.07c0,.88.06.9.39,1l.15,0a.21.21,0,0,1,0,.24l-.93,0c-.33,0-.64,0-.95,0a.21.21,0,0,1,0-.24l.16,0c.33-.05.39-.07.39-1V55.15c0-.22,0-.24-.38-.24Z"/><path class="cls-1" d="M21.77,53.29c0-.87-.06-.9-.39-1h-.11c-.05-.06-.05-.21,0-.24l.91,0h1.34l.94,0c0,.14.07.79.11,1.15,0,.06-.16.08-.22,0-.11-.48-.22-.69-.44-.75a1.69,1.69,0,0,0-.56-.08h-.47c-.3,0-.3,0-.3.49v1.39c0,.22,0,.23.16.23h.34c.61,0,.73,0,.78-.37l.05-.28s.19,0,.22,0c0,.23,0,.52,0,.83s0,.6,0,.86c0,.06-.17.06-.22,0l-.05-.33c-.05-.34-.17-.36-.78-.36h-.34c-.16,0-.16,0-.16.22v1a1.79,1.79,0,0,0,.11.86c.09.11.21.18.8.18.89,0,1-.22,1.29-.89a.15.15,0,0,1,.22.05,5.76,5.76,0,0,1-.29,1.19l-1.73,0h-.8l-1.06,0a.19.19,0,0,1,0-.23l.26,0c.33,0,.39-.06.39-.94Z"/><path class="cls-1" d="M36.48,53.29c0-.87-.06-.9-.39-1H36c0-.06,0-.21,0-.24l.9,0h1.34l1,0c0,.14.07.79.11,1.15,0,.06-.16.08-.22,0-.11-.48-.22-.69-.44-.75a1.69,1.69,0,0,0-.56-.08H37.6c-.31,0-.31,0-.31.49v1.39c0,.22,0,.23.17.23h.34c.61,0,.73,0,.78-.37l.05-.28s.19,0,.22,0c0,.23,0,.52,0,.83s0,.6,0,.86c0,.06-.17.06-.22,0l-.05-.33c0-.34-.17-.36-.78-.36h-.34c-.16,0-.17,0-.17.22v1a1.76,1.76,0,0,0,.12.86c.09.11.21.18.8.18.89,0,1-.22,1.29-.89a.15.15,0,0,1,.22.05,6.48,6.48,0,0,1-.29,1.19l-1.74,0h-.8l-1,0a.19.19,0,0,1,0-.23l.26,0c.33,0,.39-.06.39-.94Z"/><path class="cls-1" d="M41.6,57.34a2.92,2.92,0,0,1-.21-1.26.14.14,0,0,1,.22,0c.12.42.5,1.3,1.19,1.3a.81.81,0,0,0,.84-.88,1.35,1.35,0,0,0-.72-1.2l-.3-.2a1.89,1.89,0,0,1-1-1.59A1.43,1.43,0,0,1,43.17,52a4.19,4.19,0,0,1,1,.17,4,4,0,0,1,.15,1.12.15.15,0,0,1-.22,0c-.11-.43-.35-1-1-1a.78.78,0,0,0-.79.87,1.21,1.21,0,0,0,.66,1l.44.28a1.88,1.88,0,0,1,1,1.62,1.52,1.52,0,0,1-1.63,1.61,2,2,0,0,1-1.15-.34"/><path class="cls-1" d="M47.73,56.36c0,.88.07.9.4,1l.15,0a.19.19,0,0,1,0,.23l-.94,0-.94,0c-.06,0-.07-.18,0-.23l.16,0c.33-.05.39-.07.39-1V53.29c0-.87-.06-.9-.39-.95l-.16,0c0-.06,0-.21,0-.24l.94,0,.94,0a.21.21,0,0,1,0,.24l-.15,0c-.33,0-.4.08-.4.95Z"/><path class="cls-1" d="M50.82,53.34c0-.79,0-.89-.34-.94l-.15,0a.21.21,0,0,1,0-.23c.51,0,1.07-.07,1.76-.07a3.89,3.89,0,0,1,1.65.28,2.55,2.55,0,0,1,1.44,2.47,2.7,2.7,0,0,1-1.26,2.37,3.32,3.32,0,0,1-1.74.4c-.42,0-.75-.05-1-.05l-.89,0c-.06,0-.07-.18,0-.23l.16,0c.33-.05.39-.07.39-1Zm.81,2.7c0,.8,0,1.23.8,1.23,1.24,0,1.8-1,1.8-2.44,0-1.63-.8-2.42-2-2.42a1.08,1.08,0,0,0-.57.11s-.06.23-.06.61Z"/><path class="cls-1" d="M57.74,53.29c0-.87-.07-.9-.4-1h-.11a.21.21,0,0,1,0-.24l.91,0h1.34l.95,0c0,.14.07.79.11,1.15a.18.18,0,0,1-.23,0c-.11-.48-.21-.69-.44-.75a1.69,1.69,0,0,0-.56-.08h-.47c-.3,0-.3,0-.3.49v1.39c0,.22,0,.23.17.23h.33c.61,0,.73,0,.78-.37l.05-.28a.18.18,0,0,1,.23,0c0,.23,0,.52,0,.83s0,.6,0,.86a.18.18,0,0,1-.23,0l-.05-.33c0-.34-.17-.36-.78-.36h-.33c-.16,0-.17,0-.17.22v1a1.65,1.65,0,0,0,.12.86c.08.11.2.18.79.18.89,0,1-.22,1.29-.89a.16.16,0,0,1,.23.05,6.44,6.44,0,0,1-.3,1.19l-1.73,0h-.8l-1,0c-.06,0-.07-.18,0-.23l.26,0c.33,0,.4-.06.4-.94Z"/><path class="cls-1" d="M67.08,56.15c0,.24,0,1.26,0,1.45a.24.24,0,0,1-.24.11c-.11-.17-.31-.45-.82-1.13l-1.64-2.2c-.46-.6-.68-.92-.8-1s0,.09,0,.53v1.61a6.22,6.22,0,0,0,.12,1.62.45.45,0,0,0,.36.21l.16,0c.06,0,0,.21,0,.23l-.8,0-.73,0a.18.18,0,0,1,0-.23l.15-.05c.14,0,.26,0,.31-.19a7.59,7.59,0,0,0,.09-1.62v-2c0-.64,0-.77-.23-1a1,1,0,0,0-.37-.17l-.1,0s0-.22,0-.24a8.27,8.27,0,0,0,.83,0l.48,0A12,12,0,0,0,65,53.79l.71.89c.29.38.94,1.25,1,1.3s0-.06,0-.2V54.17a5.45,5.45,0,0,0-.13-1.62c-.06-.13-.17-.17-.35-.21l-.16,0c-.06-.06-.06-.22,0-.24l.81,0,.74,0a.19.19,0,0,1,0,.24l-.16,0a.34.34,0,0,0-.3.19,6.85,6.85,0,0,0-.1,1.62Z"/><path class="cls-1" d="M73.9,53.49a.17.17,0,0,1-.23,0,1.36,1.36,0,0,0-1.36-1.21c-.89,0-1.79.74-1.79,2.44s.94,2.61,1.84,2.61a1.59,1.59,0,0,0,1.47-1.23.13.13,0,0,1,.21,0,3.58,3.58,0,0,1-.34,1.25l-.25.07a3.44,3.44,0,0,1-1.09.2,2.85,2.85,0,0,1-1.8-.55,2.77,2.77,0,0,1-1-2.27,2.88,2.88,0,0,1,.88-2.19,2.94,2.94,0,0,1,1.94-.7,4.58,4.58,0,0,1,1.21.18l.2.05c0,.19,0,.68.1,1.29"/><path class="cls-1" d="M76.39,53.29c0-.87-.06-.9-.39-1h-.11a.21.21,0,0,1,0-.24l.91,0h1.34l.94,0c0,.14.07.79.12,1.15a.18.18,0,0,1-.23,0c-.11-.48-.22-.69-.44-.75a1.69,1.69,0,0,0-.56-.08h-.47c-.3,0-.3,0-.3.49v1.39c0,.22,0,.23.17.23h.33c.61,0,.73,0,.78-.37l.05-.28c.06,0,.19,0,.22,0,0,.23,0,.52,0,.83s0,.6,0,.86c0,.06-.16.06-.22,0l-.05-.33c0-.34-.17-.36-.78-.36h-.33c-.17,0-.17,0-.17.22v1a1.65,1.65,0,0,0,.12.86c.08.11.2.18.79.18.89,0,1-.22,1.29-.89a.15.15,0,0,1,.22.05,5.76,5.76,0,0,1-.29,1.19l-1.73,0h-.8l-1,0c-.06,0-.07-.18,0-.23l.26,0c.33,0,.39-.06.39-.94Z"/><path class="cls-1" d="M81.51,57.34a3.08,3.08,0,0,1-.21-1.26.14.14,0,0,1,.22,0c.13.42.51,1.3,1.19,1.3a.81.81,0,0,0,.84-.88,1.35,1.35,0,0,0-.72-1.2l-.3-.2a1.91,1.91,0,0,1-1-1.59A1.44,1.44,0,0,1,83.09,52a4.29,4.29,0,0,1,1,.17,4.45,4.45,0,0,1,.14,1.12.15.15,0,0,1-.22,0c-.11-.43-.35-1-1-1a.78.78,0,0,0-.79.87,1.2,1.2,0,0,0,.67,1l.43.28a1.86,1.86,0,0,1,1,1.62,1.52,1.52,0,0,1-1.63,1.61,2,2,0,0,1-1.15-.34"/><path class="cls-1" d="M30.48,53.29c0-.8,0-.9-.34-.94l-.18,0a.21.21,0,0,1,0-.24A15.93,15.93,0,0,1,31.59,52a2.61,2.61,0,0,1,1.35.28,1.36,1.36,0,0,1,.62,1.22,1.4,1.4,0,0,1-.85,1.31s0,.09,0,.14A9.89,9.89,0,0,0,34,57.13a.51.51,0,0,0,.38.2s0,.23,0,.23H33.14s-.19-.28-.62-1.05c-.19-.35-.39-.81-.56-1.14s-.21-.28-.44-.28-.22,0-.22.18v1.07c0,.88.07.91.4,1l.15,0a.21.21,0,0,1,0,.25c-.31,0-.63,0-.94,0l-1,0a.2.2,0,0,1,0-.25l.15,0c.34,0,.4-.08.4-1Zm.82,1.2c0,.27,0,.28.34.28.7,0,1-.4,1-1.19s-.36-1.23-1-1.23c-.37,0-.38,0-.38.41Z"/><path class="cls-1" d="M6.22,68.66c.07,0,.06.21,0,.25l-.87,0c-.33,0-.64,0-1,0,0,0-.08-.2,0-.25l.19,0c.28-.05.31-.11.31-.68V64.53h0c-.19.46-.29.71-.42,1L3.83,67c-.24.58-.6,1.51-.73,1.9,0,0-.13,0-.18,0a17.5,17.5,0,0,0-.59-1.68l-.63-1.6-.41-1.13h0c0,.41,0,1.06,0,1.41,0,.51,0,1.25,0,1.93s0,.69.31.74l.23,0a.23.23,0,0,1,0,.25c-.27,0-.49,0-.75,0l-.76,0a.23.23,0,0,1,0-.25H.34c.34-.05.4-.18.44-.69S.85,66.9.89,66c0-.56.07-1.26.07-1.76s-.11-.57-.38-.62l-.24,0c-.05-.06,0-.22,0-.24l.67,0c.25,0,.5,0,.76,0a4.37,4.37,0,0,0,.39,1.38L3,66.67c0,.14.24.55.33.75.11-.25.21-.48.37-.87L4.32,65a9.26,9.26,0,0,0,.58-1.59l.58,0,.74,0a.16.16,0,0,1,0,.24l-.23,0c-.31,0-.39.19-.39.63,0,1.24,0,2.47.07,3.7,0,.56.1.62.32.65Z"/><path class="cls-1" d="M9,66.84c-.18,0-.18,0-.24.23l-.29,1c-.14.5-.11.52.15.56l.2,0a.21.21,0,0,1,0,.25c-.23,0-.46,0-.75,0s-.45,0-.7,0a.22.22,0,0,1,0-.25l.21,0c.21,0,.29-.11.39-.38s.2-.57.35-1l1-3a1.57,1.57,0,0,0,.13-.61c.25-.06.48-.4.5-.4a.14.14,0,0,1,.12.07c.11.37.2.76.32,1.14l1,3.49c.16.56.2.61.56.69l.1,0a.21.21,0,0,1,0,.25c-.29,0-.55,0-.92,0s-.62,0-.86,0a.23.23,0,0,1,0-.25l.16,0c.26,0,.28-.08.18-.44l-.33-1.13c-.07-.23-.09-.23-.29-.23Zm.85-.37c.2,0,.23,0,.17-.22l-.3-1a3.89,3.89,0,0,0-.2-.66h0c0,.06-.09.27-.21.66l-.3,1c-.08.25-.06.25.11.25Z"/><path class="cls-1" d="M17.47,67.47c0,.25,0,1.27,0,1.46a.25.25,0,0,1-.24.12c-.11-.18-.32-.46-.83-1.14l-1.65-2.23c-.47-.61-.69-.92-.81-1.05s0,.09,0,.54v1.62a6,6,0,0,0,.12,1.64.45.45,0,0,0,.37.21l.15,0c.06.06.06.22,0,.25q-.4,0-.81,0c-.3,0-.49,0-.74,0a.21.21,0,0,1,0-.25l.15,0c.14,0,.27-.05.32-.19a7.81,7.81,0,0,0,.09-1.64v-2c0-.65,0-.79-.24-1a1,1,0,0,0-.37-.16l-.11,0c0-.05,0-.22,0-.24a8.4,8.4,0,0,0,.84,0,4.18,4.18,0,0,0,.49,0,10.46,10.46,0,0,0,1.14,1.72l.7.9c.3.39,1,1.27,1,1.32s0-.07,0-.2V65.47A5.93,5.93,0,0,0,17,63.83a.45.45,0,0,0-.36-.2l-.16,0c-.06-.06-.06-.22,0-.24.28,0,.54,0,.82,0s.49,0,.74,0a.19.19,0,0,1,0,.24l-.17,0c-.13,0-.25.06-.3.19a7.09,7.09,0,0,0-.1,1.64Z"/><path class="cls-1" d="M20.08,64.63c0-.8,0-.9-.34-.95h-.15a.23.23,0,0,1,0-.24c.51,0,1.08-.07,1.77-.07a4.12,4.12,0,0,1,1.67.28,2.57,2.57,0,0,1,1.45,2.49,2.73,2.73,0,0,1-1.26,2.4,3.41,3.41,0,0,1-1.76.4c-.43,0-.76-.05-1-.05l-.89,0a.2.2,0,0,1,0-.24l.16,0c.33,0,.39-.07.39-1Zm.82,2.73c0,.81.05,1.24.8,1.24,1.26,0,1.83-1,1.83-2.46,0-1.65-.81-2.45-2-2.45a1.08,1.08,0,0,0-.57.12c-.05,0-.06.22-.06.62Z"/><path class="cls-1" d="M26.61,66.84c-.19,0-.18,0-.24.23l-.29,1c-.14.5-.12.52.15.56l.2,0a.23.23,0,0,1,0,.25c-.23,0-.46,0-.75,0s-.46,0-.7,0a.22.22,0,0,1,0-.25l.21,0c.21,0,.29-.11.39-.38s.2-.57.35-1l1-3a1.57,1.57,0,0,0,.13-.61c.25-.06.48-.4.5-.4a.15.15,0,0,1,.12.07c.11.37.2.76.32,1.14L29,68c.16.56.19.61.56.69l.1,0a.21.21,0,0,1,0,.25c-.29,0-.55,0-.92,0s-.62,0-.87,0a.25.25,0,0,1,0-.25l.16,0c.25,0,.28-.08.18-.44l-.33-1.13c-.07-.23-.09-.23-.29-.23Zm.85-.37c.2,0,.23,0,.17-.22l-.3-1a3.89,3.89,0,0,0-.2-.66h0c0,.06-.09.27-.21.66l-.3,1c-.08.25-.06.25.11.25Z"/><path class="cls-1" d="M31,64.63c0-.8,0-.9-.34-.94l-.18,0a.19.19,0,0,1,0-.24,15.6,15.6,0,0,1,1.62-.07,2.59,2.59,0,0,1,1.35.28,1.36,1.36,0,0,1,.62,1.22,1.4,1.4,0,0,1-.85,1.31s0,.1,0,.15a9.5,9.5,0,0,0,1.26,2.15.48.48,0,0,0,.38.2s0,.23,0,.23H33.68s-.19-.28-.62-1.05c-.19-.35-.39-.81-.56-1.13s-.2-.29-.44-.29-.22,0-.22.19v1.06c0,.88.07.91.4,1l.16,0a.21.21,0,0,1,0,.25c-.31,0-.63,0-.94,0l-1,0a.21.21,0,0,1,0-.25l.16,0c.33,0,.39-.08.39-1Zm.82,1.2c0,.27,0,.29.34.29.7,0,1-.4,1-1.2s-.37-1.23-1-1.23c-.37,0-.38,0-.38.41Z"/><path class="cls-1" d="M55.89,64.63c0-.8,0-.9-.34-.94l-.19,0a.19.19,0,0,1,0-.24A15.93,15.93,0,0,1,57,63.36a2.57,2.57,0,0,1,1.34.28A1.35,1.35,0,0,1,59,64.86a1.4,1.4,0,0,1-.85,1.31s0,.1,0,.15a9.58,9.58,0,0,0,1.25,2.15.51.51,0,0,0,.38.2s0,.23,0,.23h-1.2s-.19-.28-.62-1.05c-.19-.35-.39-.81-.56-1.13s-.21-.29-.44-.29-.22,0-.22.19v1.06c0,.88.06.91.4,1l.15,0a.23.23,0,0,1,0,.25c-.31,0-.63,0-.94,0s-.63,0-1,0a.18.18,0,0,1,0-.25l.15,0c.33,0,.4-.08.4-1Zm.82,1.2c0,.27,0,.29.34.29.69,0,1-.4,1-1.2s-.36-1.23-1-1.23c-.36,0-.37,0-.37.41Z"/><path class="cls-1" d="M37.3,67.68c0,.89.06.91.39,1l.16,0a.23.23,0,0,1,0,.25c-.31,0-.63,0-1,0s-.64,0-1,0a.21.21,0,0,1,0-.25l.15,0c.33,0,.4-.07.4-1v-3.1c0-.88-.07-.91-.4-1l-.15,0c0-.06,0-.21,0-.24.31,0,.63,0,1,0s.64,0,1,0a.21.21,0,0,1,0,.24l-.16,0c-.33.05-.39.08-.39,1Z"/><path class="cls-1" d="M44.11,67.47c0,.25,0,1.27,0,1.46a.24.24,0,0,1-.24.12c-.11-.18-.32-.46-.83-1.14l-1.65-2.23c-.46-.61-.69-.92-.81-1.05s0,.09,0,.54v1.62a5.89,5.89,0,0,0,.13,1.64c.06.13.18.18.36.21l.15,0c.07.06.06.22,0,.25-.26,0-.54,0-.81,0s-.49,0-.73,0a.21.21,0,0,1,0-.25l.16,0c.13,0,.26-.05.31-.19a7.81,7.81,0,0,0,.09-1.64v-2c0-.65,0-.79-.23-1a1.06,1.06,0,0,0-.38-.16l-.1,0c0-.05,0-.22,0-.24a8.4,8.4,0,0,0,.84,0,4.18,4.18,0,0,0,.49,0A10.46,10.46,0,0,0,42,65.08l.71.9c.29.39.95,1.27,1,1.32s0-.07,0-.2V65.47a5.56,5.56,0,0,0-.13-1.64.43.43,0,0,0-.35-.2l-.17,0c-.06-.06-.05-.22,0-.24.27,0,.54,0,.81,0s.49,0,.74,0a.18.18,0,0,1,0,.24l-.16,0c-.14,0-.26.06-.31.19a7.09,7.09,0,0,0-.1,1.64Z"/><path class="cls-1" d="M53.8,66.15A2.62,2.62,0,0,1,51.31,69a2.58,2.58,0,0,1-2.52-2.8,2.68,2.68,0,0,1,2.53-3c1.64,0,2.48,1.38,2.48,2.9m-4-.18c0,1.15.42,2.71,1.63,2.71.81,0,1.46-.71,1.46-2.38,0-1.26-.48-2.72-1.61-2.72-.71,0-1.48.61-1.48,2.39"/><path class="cls-1" d="M62.73,67.68c0,.89.06.91.4,1l.15,0a.21.21,0,0,1,0,.25c-.31,0-.63,0-.94,0s-.65,0-1,0a.21.21,0,0,1,0-.25l.15,0c.34,0,.4-.07.4-1v-3.1c0-.88-.06-.91-.4-1l-.15,0c0-.06,0-.21,0-.24.31,0,.63,0,1,0s.63,0,.94,0c.06,0,.06.18,0,.24l-.15,0c-.34.05-.4.08-.4,1Z"/><path class="cls-1" d="M66,64.58c0-.88-.07-.91-.4-1l-.11,0c0-.06,0-.21,0-.24.27,0,.6,0,.91,0H67.8c.45,0,.86,0,1,0,0,.14.07.8.12,1.16a.18.18,0,0,1-.23,0c-.11-.48-.22-.69-.45-.76a1.69,1.69,0,0,0-.56-.07h-.48c-.3,0-.3,0-.3.49v1.41c0,.21,0,.22.17.22h.34c.61,0,.73,0,.78-.37l0-.28a.16.16,0,0,1,.23,0c0,.22,0,.52,0,.83s0,.61,0,.88a.17.17,0,0,1-.23,0l0-.33c0-.35-.17-.36-.78-.36H67c-.17,0-.17,0-.17.22V67.5a1.65,1.65,0,0,0,.12.86c.08.12.2.19.8.19.9,0,1-.23,1.3-.9a.15.15,0,0,1,.23,0,5.94,5.94,0,0,1-.3,1.21c-.31,0-.92,0-1.75,0h-.81c-.31,0-.74,0-1.06,0a.23.23,0,0,1,0-.25l.26,0c.33,0,.4-.06.4-.95Z"/><path class="cls-1" d="M75.46,67.47c0,.25,0,1.27,0,1.46a.24.24,0,0,1-.24.12c-.11-.18-.32-.46-.83-1.14l-1.65-2.23c-.46-.61-.69-.92-.81-1.05s0,.09,0,.54v1.62a5.52,5.52,0,0,0,.13,1.64c.06.13.18.18.36.21l.15,0c.07.06.06.22,0,.25-.26,0-.54,0-.81,0s-.49,0-.74,0a.21.21,0,0,1,0-.25l.16,0c.13,0,.26-.05.31-.19a7.81,7.81,0,0,0,.09-1.64v-2c0-.65,0-.79-.23-1a1.06,1.06,0,0,0-.38-.16l-.11,0c0-.05,0-.22,0-.24a8.4,8.4,0,0,0,.84,0,4.18,4.18,0,0,0,.49,0,10.46,10.46,0,0,0,1.14,1.72l.7.9c.3.39,1,1.27,1,1.32s0-.07,0-.2V65.47A5.56,5.56,0,0,0,75,63.83a.45.45,0,0,0-.36-.2l-.16,0c-.06-.06-.06-.22,0-.24.27,0,.53,0,.81,0s.49,0,.74,0a.19.19,0,0,1,0,.24l-.17,0c-.13,0-.25.06-.3.19a7.09,7.09,0,0,0-.1,1.64Z"/><path class="cls-1" d="M79.5,64.08c0-.35,0-.36-.19-.36h-.4c-.65,0-.84.09-1.1.76a.16.16,0,0,1-.23-.06c.12-.44.23-1,.28-1.25a.07.07,0,0,1,.07,0,.09.09,0,0,1,.08,0c0,.21.13.21.61.21h2.89c.35,0,.45,0,.54-.21,0,0,0,0,.08,0a.11.11,0,0,1,.1,0,6.24,6.24,0,0,0-.11,1.32.15.15,0,0,1-.22,0c-.09-.64-.23-.8-1-.8h-.41c-.18,0-.19,0-.19.36v3.6c0,.88.06.91.4.95l.25,0a.23.23,0,0,1,0,.25l-1,0-1.1,0a.21.21,0,0,1,0-.25l.29,0c.34,0,.4-.06.4-.94Z"/><path class="cls-1" d="M84.62,66.84c-.18,0-.18,0-.24.23l-.29,1c-.14.5-.11.52.15.56l.2,0a.21.21,0,0,1,0,.25c-.23,0-.46,0-.75,0s-.45,0-.7,0a.22.22,0,0,1,0-.25l.21,0c.21,0,.29-.11.39-.38s.2-.57.35-1l1-3a1.57,1.57,0,0,0,.13-.61c.25-.06.48-.4.5-.4a.14.14,0,0,1,.12.07c.11.37.2.76.32,1.14L87,68c.16.56.2.61.56.69l.1,0a.21.21,0,0,1,0,.25c-.29,0-.55,0-.92,0s-.62,0-.86,0a.23.23,0,0,1,0-.25l.16,0c.26,0,.28-.08.18-.44l-.33-1.13c-.07-.23-.09-.23-.29-.23Zm.85-.37c.2,0,.23,0,.17-.22l-.3-1a3.89,3.89,0,0,0-.2-.66h0c0,.06-.09.27-.21.66l-.3,1c-.08.25-.06.25.11.25Z"/><path class="cls-1" d="M90.52,67.51a1.62,1.62,0,0,0,.12.85c.09.12.2.19.77.19.78,0,.89,0,1.22-.9a.17.17,0,0,1,.22,0,8.9,8.9,0,0,1-.3,1.21c-.29,0-.9,0-1.7,0h-.73c-.36,0-.72,0-1,0a.21.21,0,0,1,0-.25l.21,0c.34-.05.4-.07.4-.94v-3.1c0-.86-.06-.89-.4-.95l-.2,0s0-.21,0-.24l1,0,.94,0a.18.18,0,0,1,0,.24l-.15,0c-.34.06-.4.09-.4.95Z"/><path class="cls-1" d="M33.49,79.52c.07,0,.06.21,0,.24l-.86,0c-.34,0-.64,0-.95,0a.17.17,0,0,1,0-.24l.2,0c.28,0,.3-.11.3-.68V75.38h0c-.2.46-.29.71-.43,1l-.61,1.47c-.24.58-.59,1.51-.72,1.9a.16.16,0,0,1-.19,0,17.5,17.5,0,0,0-.59-1.68L29,76.51l-.41-1.13h0c0,.41,0,1.06,0,1.41,0,.51,0,1.25,0,1.93s0,.68.31.75l.23,0s0,.21,0,.24c-.27,0-.49,0-.75,0l-.76,0a.21.21,0,0,1,0-.24l.12,0c.34,0,.39-.18.44-.68s.07-1.07.11-1.94c0-.57.07-1.26.07-1.77s-.11-.56-.38-.61l-.24,0c-.05-.06,0-.22,0-.25.22,0,.41,0,.67,0a6.52,6.52,0,0,0,.76,0,4.18,4.18,0,0,0,.39,1.39l.78,1.92c.06.15.24.56.33.76.12-.25.21-.48.37-.87l.67-1.6a10.22,10.22,0,0,0,.57-1.6c.19,0,.43,0,.58,0s.55,0,.75,0a.17.17,0,0,1,0,.25l-.24,0c-.31.06-.38.19-.38.63,0,1.24,0,2.47.07,3.7,0,.56.1.61.32.65Z"/><path class="cls-1" d="M39.87,77a2.63,2.63,0,0,1-2.5,2.87,2.59,2.59,0,0,1-2.52-2.81,2.68,2.68,0,0,1,2.54-3c1.64,0,2.48,1.39,2.48,2.91m-4.06-.19c0,1.15.42,2.72,1.63,2.72.81,0,1.47-.71,1.47-2.38,0-1.26-.49-2.72-1.61-2.72-.71,0-1.49.61-1.49,2.38"/><path class="cls-1" d="M41.53,79.52a2.8,2.8,0,0,1-.21-1.27.14.14,0,0,1,.22,0c.12.42.51,1.31,1.2,1.31a.81.81,0,0,0,.84-.89,1.37,1.37,0,0,0-.72-1.21l-.3-.2a1.91,1.91,0,0,1-1-1.61,1.46,1.46,0,0,1,1.56-1.53,3.79,3.79,0,0,1,1,.18,4,4,0,0,1,.15,1.13.16.16,0,0,1-.23,0c-.11-.43-.35-1-1-1a.79.79,0,0,0-.8.87,1.24,1.24,0,0,0,.68,1l.44.28a1.89,1.89,0,0,1,1,1.64,1.54,1.54,0,0,1-1.65,1.63,1.9,1.9,0,0,1-1.16-.35"/><path class="cls-1" d="M50.33,75.63a.17.17,0,0,1-.23,0,1.37,1.37,0,0,0-1.37-1.22c-.9,0-1.81.75-1.81,2.46s.94,2.64,1.86,2.64a1.6,1.6,0,0,0,1.48-1.24.13.13,0,0,1,.21,0,3.66,3.66,0,0,1-.34,1.27l-.25.08a3.52,3.52,0,0,1-1.1.2A2.88,2.88,0,0,1,47,79.31,2.79,2.79,0,0,1,46,77a2.92,2.92,0,0,1,.9-2.21,3,3,0,0,1,1.95-.71,4.66,4.66,0,0,1,1.23.19l.2,0c0,.19,0,.68.1,1.3"/><path class="cls-1" d="M56.92,77a2.63,2.63,0,0,1-2.49,2.87,2.59,2.59,0,0,1-2.53-2.81,2.68,2.68,0,0,1,2.54-3c1.64,0,2.48,1.39,2.48,2.91m-4.05-.19c0,1.15.41,2.72,1.63,2.72.81,0,1.46-.71,1.46-2.38,0-1.26-.48-2.72-1.61-2.72-.71,0-1.48.61-1.48,2.38"/><path class="cls-1" d="M65,74.48c-.33.08-.43.26-.7.94-.54,1.41-1,2.55-1.39,3.72-.11.31-.17.54-.23.69a.19.19,0,0,1-.12,0,.18.18,0,0,1-.13,0c-.15-.51-.59-1.59-.88-2.31-.32.76-.63,1.53-.9,2.31a.19.19,0,0,1-.12,0,.18.18,0,0,1-.13,0c-.11-.37-.29-.82-.49-1.33l-1.37-3.41c-.15-.38-.22-.51-.51-.59l-.2-.06a.2.2,0,0,1,0-.24c.26,0,.55,0,.86,0l.86,0a.21.21,0,0,1,0,.24l-.18,0c-.09,0-.16.06-.16.13a1.86,1.86,0,0,0,.17.56l.84,2.15a13,13,0,0,0,.5,1.2c.14-.33.3-.72.47-1.16a1.31,1.31,0,0,0,.1-.31.79.79,0,0,0-.06-.25L60.53,75c-.13-.33-.22-.41-.41-.46l-.21,0a.18.18,0,0,1,0-.24l.76,0c.29,0,.56,0,.85,0a.21.21,0,0,1,0,.24l-.19,0c-.08,0-.12.06-.12.11a.81.81,0,0,0,.06.28c.16.42.32.84.48,1.22.12-.29.24-.6.35-.9a2.32,2.32,0,0,0,.16-.58q0-.09-.15-.12L62,74.44a.19.19,0,0,1,0-.24,6.12,6.12,0,0,0,.66,0,6.4,6.4,0,0,0,.64,0,.2.2,0,0,1,0,.25l-.18,0c-.26.06-.33.16-.56.65-.16.33-.33.78-.49,1.16a1,1,0,0,0-.07.23.74.74,0,0,0,.06.2l.3.78c.15.37.33.88.4,1,.36-1,.74-2.09,1.12-3.15a3.91,3.91,0,0,0,.22-.78s-.13-.08-.24-.12l-.12,0a.16.16,0,0,1,0-.24l.73,0c.24,0,.46,0,.68,0a.21.21,0,0,1,0,.24Z"/></g></g></svg>