<svg xmlns="http://www.w3.org/2000/svg" width="14" height="12" viewBox="0 0 14 12">
  <path fill="#FFFFFF" d="M14,1.30770023 C13.4847214,1.52961152 12.9318349,1.68010921 12.3509254,1.74729846 C12.9440734,1.4020809 13.3981134,0.854517414 13.6133066,0.204057887 C13.05692,0.523751541 12.442772,0.755890176 11.7883853,0.881731061 C11.2643681,0.338414153 10.5190041,0 9.69227074,0 C8.10619625,0 6.82018435,1.24989347 6.82018435,2.7905772 C6.82018435,3.00908678 6.84555367,3.22250492 6.89455375,3.42658504 C4.50800737,3.31008217 2.39178495,2.19879154 0.97542643,0.510144717 C0.727841059,0.92168443 0.586994423,1.40121379 0.586994423,1.91309271 C0.586994423,2.88155616 1.09440375,3.73607357 1.86426775,4.23601317 C1.39359705,4.22071661 0.95092639,4.09487573 0.563386541,3.88570416 L0.563386541,3.92056609 C0.563386541,5.2724885 1.55370515,6.40078765 2.86682495,6.6575831 C2.62623959,6.72050354 2.37254636,6.75536547 2.11009168,6.75536547 C1.92463713,6.75536547 1.74529043,6.73751207 1.56944374,6.70349501 C1.93511427,7.8130959 2.995433,8.61998943 4.25170629,8.64211164 C3.26925698,9.39035353 2.03048371,9.8350432 0.684994583,9.8350432 C0.453170675,9.8350432 0.224823897,9.82143638 0,9.79677957 C1.2711426,10.5900885 2.78023984,11.0526316 4.40218366,11.0526316 C9.68531648,11.0526316 12.5731643,6.79958765 12.5731643,3.11113796 L12.5635336,2.74977896 C13.1277894,2.35862725 13.6159373,1.8671808 14,1.30770023 Z"/>
</svg>
